<svg xmlns="http://www.w3.org/2000/svg" version="1.1" xmlns:xlink="http://www.w3.org/1999/xlink" xmlns:svgjs="http://svgjs.dev/svgjs" viewBox="0 0 1422 800"><defs><linearGradient x1="50%" y1="0%" x2="50%" y2="100%" id="oooscillate-grad"><stop stop-color="hsl(188, 86%, 53%)" stop-opacity="1" offset="0%"></stop><stop stop-color="rgba(23, 37, 84, 1)" stop-opacity="1" offset="100%"></stop></linearGradient></defs><g stroke-width="2" stroke="url(#oooscillate-grad)" fill="none" stroke-linecap="round"><path d="M 0 572 Q 355.5 305 711 400 Q 1066.5 495 1422 572" stroke-dasharray="1 4" opacity="0.75"></path><path d="M 0 550 Q 355.5 305 711 400 Q 1066.5 495 1422 550" stroke-dasharray="1 6" opacity="0.96"></path><path d="M 0 528 Q 355.5 305 711 400 Q 1066.5 495 1422 528" stroke-dasharray="4 1" opacity="0.44"></path><path d="M 0 506 Q 355.5 305 711 400 Q 1066.5 495 1422 506" stroke-dasharray="6 0" opacity="0.70"></path><path d="M 0 484 Q 355.5 305 711 400 Q 1066.5 495 1422 484" stroke-dasharray="1 5" opacity="0.12"></path><path d="M 0 462 Q 355.5 305 711 400 Q 1066.5 495 1422 462" stroke-dasharray="1 0" opacity="0.68"></path><path d="M 0 440 Q 355.5 305 711 400 Q 1066.5 495 1422 440" stroke-dasharray="3 6" opacity="0.39"></path><path d="M 0 418 Q 355.5 305 711 400 Q 1066.5 495 1422 418" stroke-dasharray="0 5" opacity="0.63"></path><path d="M 0 396 Q 355.5 305 711 400 Q 1066.5 495 1422 396" stroke-dasharray="7 4" opacity="0.84"></path><path d="M 0 374 Q 355.5 305 711 400 Q 1066.5 495 1422 374" stroke-dasharray="0 4" opacity="0.24"></path><path d="M 0 352 Q 355.5 305 711 400 Q 1066.5 495 1422 352" stroke-dasharray="4 1" opacity="0.40"></path><path d="M 0 330 Q 355.5 305 711 400 Q 1066.5 495 1422 330" stroke-dasharray="2 4" opacity="0.42"></path><path d="M 0 308 Q 355.5 305 711 400 Q 1066.5 495 1422 308" stroke-dasharray="0 5" opacity="0.18"></path><path d="M 0 286 Q 355.5 305 711 400 Q 1066.5 495 1422 286" stroke-dasharray="5 3" opacity="0.17"></path><path d="M 0 264 Q 355.5 305 711 400 Q 1066.5 495 1422 264" stroke-dasharray="3 7" opacity="0.11"></path><path d="M 0 242 Q 355.5 305 711 400 Q 1066.5 495 1422 242" stroke-dasharray="3 4" opacity="0.10"></path><path d="M 0 220 Q 355.5 305 711 400 Q 1066.5 495 1422 220" stroke-dasharray="5 4" opacity="0.74"></path><path d="M 0 198 Q 355.5 305 711 400 Q 1066.5 495 1422 198" stroke-dasharray="6 6" opacity="0.36"></path><path d="M 0 176 Q 355.5 305 711 400 Q 1066.5 495 1422 176" stroke-dasharray="3 4" opacity="0.89"></path><path d="M 0 154 Q 355.5 305 711 400 Q 1066.5 495 1422 154" stroke-dasharray="1 2" opacity="0.92"></path><path d="M 0 132 Q 355.5 305 711 400 Q 1066.5 495 1422 132" stroke-dasharray="3 1" opacity="0.59"></path><path d="M 0 110 Q 355.5 305 711 400 Q 1066.5 495 1422 110" stroke-dasharray="6 7" opacity="0.27"></path><path d="M 0 88 Q 355.5 305 711 400 Q 1066.5 495 1422 88" stroke-dasharray="4 3" opacity="1.00"></path><path d="M 0 66 Q 355.5 305 711 400 Q 1066.5 495 1422 66" stroke-dasharray="1 2" opacity="0.10"></path><path d="M 0 44 Q 355.5 305 711 400 Q 1066.5 495 1422 44" stroke-dasharray="3 5" opacity="0.19"></path></g></svg>